<svg width="398" height="80" viewBox="0 0 398 80" fill="none" xmlns="http://www.w3.org/2000/svg">
<path d="M5.85831 3.24028V8.31123H9.97199V10.1053H5.85831L5.85831 23.3044C5.85831 24.4028 6.0542 25.2205 6.44598 25.7575C6.85 26.2945 7.51725 26.563 8.44772 26.563C8.81502 26.563 9.40881 26.502 10.2291 26.3799L10.3209 28.174C9.74549 28.3814 8.96193 28.4852 7.97024 28.4852C6.46435 28.4852 5.36859 28.0519 4.68298 27.1854C3.99737 26.3067 3.65456 25.0191 3.65456 23.3227V10.1053H0L0 8.31123H3.65456L3.65456 3.24028H5.85831Z" fill="#17252A"/>
<path d="M16.7118 11.6613C17.4341 10.4775 18.3585 9.56218 19.4849 8.91535C20.6112 8.26851 21.8417 7.94509 23.1761 7.94509C25.3064 7.94509 26.8919 8.54311 27.9326 9.73915C28.9732 10.9352 29.4997 12.7292 29.5119 15.1213V28.119H27.3266V15.103C27.3143 13.3334 26.9348 12.0153 26.1879 11.1488C25.4534 10.2822 24.2719 9.84899 22.6436 9.84899C21.2846 9.84899 20.0786 10.2761 19.0257 11.1305C17.9851 11.9726 17.2138 13.1137 16.7118 14.5538V28.119H14.5264V0L16.7118 0V11.6613Z" fill="#17252A"/>
<path d="M42.863 28.4852C41.1735 28.4852 39.6431 28.0702 38.2719 27.2403C36.9129 26.4104 35.8539 25.2571 35.0948 23.7804C34.3357 22.2914 33.9562 20.6255 33.9562 18.7826V17.9955C33.9562 16.0916 34.3235 14.3768 35.0581 12.8513C35.8049 11.3257 36.8394 10.1297 38.1617 9.26317C39.4839 8.38445 40.9164 7.94509 42.459 7.94509C44.8709 7.94509 46.7808 8.76889 48.1888 10.4165C49.609 12.0519 50.3191 14.2914 50.3191 17.135V18.3616H36.1416V18.7826C36.1416 21.0283 36.7843 22.9016 38.0699 24.4028C39.3676 25.8917 40.9959 26.6362 42.9548 26.6362C44.1302 26.6362 45.1647 26.4226 46.0585 25.9955C46.9644 25.5683 47.7847 24.8849 48.5193 23.9451L49.8967 24.9886C48.2806 27.3196 45.936 28.4852 42.863 28.4852ZM42.459 9.81237C40.8062 9.81237 39.4105 10.4165 38.2719 11.6247C37.1455 12.833 36.4599 14.4562 36.215 16.4943H48.1337V16.2563C48.0724 14.3524 47.5276 12.8025 46.4992 11.6064C45.4708 10.4104 44.1241 9.81237 42.459 9.81237Z" fill="#17252A"/>
<path d="M71.0894 26.6362C72.6198 26.6362 73.8992 26.209 74.9276 25.3547C75.9683 24.4882 76.5315 23.3715 76.6172 22.0046H78.7291C78.6679 23.2129 78.2884 24.3174 77.5905 25.3181C76.8927 26.3067 75.9622 27.0817 74.7991 27.6431C73.6482 28.2045 72.4117 28.4852 71.0894 28.4852C68.4817 28.4852 66.4126 27.582 64.8822 25.7758C63.3641 23.9695 62.605 21.5408 62.605 18.4897V17.8307C62.605 15.878 62.9478 14.1511 63.6334 12.6499C64.319 11.1488 65.2985 9.98934 66.5717 9.17164C67.8573 8.35394 69.357 7.94509 71.0711 7.94509C73.2503 7.94509 75.0439 8.59193 76.4519 9.8856C77.8721 11.1793 78.6312 12.8818 78.7291 14.9932H76.6172C76.5192 13.4432 75.9561 12.1922 74.9276 11.2403C73.9115 10.2883 72.6259 9.81237 71.0711 9.81237C69.0877 9.81237 67.5451 10.5263 66.4432 11.9543C65.3536 13.3822 64.8087 15.3837 64.8087 17.9588V18.5996C64.8087 21.1259 65.3536 23.0969 66.4432 24.5126C67.5451 25.9283 69.0938 26.6362 71.0894 26.6362Z" fill="#17252A"/>
<path d="M81.9246 17.9222C81.9246 16.0183 82.2919 14.3036 83.0264 12.7781C83.7733 11.2525 84.82 10.0687 86.1668 9.22656C87.5258 8.37225 89.0623 7.94509 90.7763 7.94509C93.4208 7.94509 95.5633 8.87263 97.2039 10.7277C98.8445 12.5706 99.6648 15.0176 99.6648 18.0687V18.5263C99.6648 20.4424 99.2914 22.1694 98.5445 23.7071C97.81 25.2327 96.7693 26.4104 95.4226 27.2403C94.0758 28.0702 92.5393 28.4852 90.813 28.4852C88.1808 28.4852 86.0382 27.5637 84.3854 25.7209C82.7448 23.8658 81.9246 21.4127 81.9246 18.3616V17.9222ZM84.1283 18.5263C84.1283 20.894 84.7405 22.8406 85.9648 24.3662C87.2013 25.8795 88.8174 26.6362 90.813 26.6362C92.7964 26.6362 94.4003 25.8795 95.6246 24.3662C96.8611 22.8406 97.4794 20.833 97.4794 18.3433V17.9222C97.4794 16.4089 97.1978 15.0237 96.6346 13.7666C96.0714 12.5096 95.2818 11.5393 94.2656 10.8559C93.2494 10.1602 92.0863 9.81237 90.7763 9.81237C88.8174 9.81237 87.2197 10.5813 85.9831 12.119C84.7466 13.6446 84.1283 15.6461 84.1283 18.1236V18.5263Z" fill="#17252A"/>
<path d="M103.007 17.9222C103.007 16.0183 103.374 14.3036 104.109 12.7781C104.856 11.2525 105.903 10.0687 107.249 9.22656C108.608 8.37225 110.145 7.94509 111.859 7.94509C114.503 7.94509 116.646 8.87263 118.286 10.7277C119.927 12.5706 120.747 15.0176 120.747 18.0687V18.5263C120.747 20.4424 120.374 22.1694 119.627 23.7071C118.893 25.2327 117.852 26.4104 116.505 27.2403C115.158 28.0702 113.622 28.4852 111.896 28.4852C109.263 28.4852 107.121 27.5637 105.468 25.7209C103.827 23.8658 103.007 21.4127 103.007 18.3616V17.9222ZM105.211 18.5263C105.211 20.894 105.823 22.8406 107.047 24.3662C108.284 25.8795 109.9 26.6362 111.896 26.6362C113.879 26.6362 115.483 25.8795 116.707 24.3662C117.944 22.8406 118.562 20.833 118.562 18.3433V17.9222C118.562 16.4089 118.28 15.0237 117.717 13.7666C117.154 12.5096 116.364 11.5393 115.348 10.8559C114.332 10.1602 113.169 9.81237 111.859 9.81237C109.9 9.81237 108.302 10.5813 107.066 12.119C105.829 13.6446 105.211 15.6461 105.211 18.1236V18.5263Z" fill="#17252A"/>
<path d="M127.763 28.119H125.559V0L127.763 0V28.119Z" fill="#17252A"/>
<path d="M141.444 28.4852C139.755 28.4852 138.224 28.0702 136.853 27.2403C135.494 26.4104 134.435 25.2571 133.676 23.7804C132.917 22.2914 132.537 20.6255 132.537 18.7826V17.9955C132.537 16.0916 132.905 14.3768 133.639 12.8513C134.386 11.3257 135.421 10.1297 136.743 9.26317C138.065 8.38445 139.498 7.94509 141.04 7.94509C143.452 7.94509 145.362 8.76889 146.77 10.4165C148.19 12.0519 148.9 14.2914 148.9 17.135V18.3616H134.723V18.7826C134.723 21.0283 135.366 22.9016 136.651 24.4028C137.949 25.8917 139.577 26.6362 141.536 26.6362C142.711 26.6362 143.746 26.4226 144.64 25.9955C145.546 25.5683 146.366 24.8849 147.101 23.9451L148.478 24.9886C146.862 27.3196 144.517 28.4852 141.444 28.4852ZM141.04 9.81237C139.387 9.81237 137.992 10.4165 136.853 11.6247C135.727 12.833 135.041 14.4562 134.796 16.4943H146.715V16.2563C146.654 14.3524 146.109 12.8025 145.08 11.6064C144.052 10.4104 142.705 9.81237 141.04 9.81237Z" fill="#17252A"/>
<path d="M165.08 23.0847C165.08 21.9985 164.639 21.1259 163.757 20.4669C162.888 19.8078 161.572 19.2952 159.809 18.9291C158.046 18.5508 156.675 18.1236 155.695 17.6476C154.728 17.1594 154.006 16.5675 153.528 15.8719C153.063 15.1762 152.83 14.3341 152.83 13.3456C152.83 11.7834 153.485 10.4958 154.795 9.48285C156.105 8.45768 157.783 7.94509 159.827 7.94509C162.043 7.94509 163.819 8.49429 165.153 9.59269C166.5 10.6789 167.173 12.1007 167.173 13.8581H164.969C164.969 12.6987 164.48 11.7346 163.5 10.9657C162.533 10.1968 161.309 9.81237 159.827 9.81237C158.383 9.81237 157.219 10.1358 156.338 10.7826C155.469 11.4173 155.034 12.2472 155.034 13.2723C155.034 14.2609 155.395 15.0298 156.118 15.579C156.852 16.116 158.181 16.6102 160.103 17.0618C162.037 17.5134 163.482 17.9955 164.437 18.508C165.404 19.0206 166.12 19.637 166.585 20.357C167.051 21.0771 167.283 21.9497 167.283 22.9749C167.283 24.6469 166.604 25.9833 165.245 26.984C163.898 27.9848 162.135 28.4852 159.956 28.4852C157.642 28.4852 155.763 27.9299 154.318 26.8193C152.885 25.6965 152.169 24.2807 152.169 22.5721H154.373C154.459 23.8536 154.997 24.8544 155.989 25.5744C156.993 26.2823 158.315 26.6362 159.956 26.6362C161.486 26.6362 162.723 26.3006 163.665 25.6293C164.608 24.9581 165.08 24.1099 165.08 23.0847Z" fill="#17252A"/>
<path d="M175.658 3.24028V8.31123H179.771V10.1053H175.658V23.3044C175.658 24.4028 175.853 25.2205 176.245 25.7575C176.649 26.2945 177.316 26.563 178.247 26.563C178.614 26.563 179.208 26.502 180.028 26.3799L180.12 28.174C179.545 28.3814 178.761 28.4852 177.77 28.4852C176.264 28.4852 175.168 28.0519 174.482 27.1854C173.797 26.3067 173.454 25.0191 173.454 23.3227V10.1053H169.799V8.31123H173.454V3.24028H175.658Z" fill="#17252A"/>
<path d="M205.372 23.0847C205.372 21.9985 204.931 21.1259 204.049 20.4669C203.18 19.8078 201.864 19.2952 200.101 18.9291C198.338 18.5508 196.967 18.1236 195.987 17.6476C195.02 17.1594 194.298 16.5675 193.82 15.8719C193.355 15.1762 193.122 14.3341 193.122 13.3456C193.122 11.7834 193.777 10.4958 195.087 9.48285C196.397 8.45768 198.075 7.94509 200.119 7.94509C202.335 7.94509 204.11 8.49429 205.445 9.59269C206.792 10.6789 207.465 12.1007 207.465 13.8581H205.261C205.261 12.6987 204.772 11.7346 203.792 10.9657C202.825 10.1968 201.601 9.81237 200.119 9.81237C198.675 9.81237 197.511 10.1358 196.63 10.7826C195.761 11.4173 195.326 12.2472 195.326 13.2723C195.326 14.2609 195.687 15.0298 196.41 15.579C197.144 16.116 198.473 16.6102 200.395 17.0618C202.329 17.5134 203.774 17.9955 204.729 18.508C205.696 19.0206 206.412 19.637 206.877 20.357C207.343 21.0771 207.575 21.9497 207.575 22.9749C207.575 24.6469 206.896 25.9833 205.537 26.984C204.19 27.9848 202.427 28.4852 200.248 28.4852C197.934 28.4852 196.055 27.9299 194.61 26.8193C193.177 25.6965 192.461 24.2807 192.461 22.5721H194.665C194.751 23.8536 195.289 24.8544 196.281 25.5744C197.285 26.2823 198.607 26.6362 200.248 26.6362C201.778 26.6362 203.015 26.3006 203.957 25.6293C204.9 24.9581 205.372 24.1099 205.372 23.0847Z" fill="#17252A"/>
<path d="M228.511 18.4165C228.511 21.5042 227.825 23.9573 226.454 25.7758C225.083 27.582 223.246 28.4852 220.945 28.4852C218.227 28.4852 216.145 27.5332 214.701 25.6293V35.7346H212.515V8.31123H214.554L214.664 11.1121C216.096 9.00078 218.172 7.94509 220.89 7.94509C223.265 7.94509 225.126 8.84212 226.472 10.6362C227.831 12.4302 228.511 14.9199 228.511 18.1053V18.4165ZM226.307 18.0321C226.307 15.5057 225.787 13.5103 224.746 12.0458C223.706 10.5813 222.255 9.84899 220.394 9.84899C219.047 9.84899 217.89 10.1724 216.923 10.8192C215.956 11.4661 215.215 12.4058 214.701 13.6385V23.1396C215.227 24.2746 215.98 25.1412 216.96 25.7392C217.939 26.3372 219.096 26.6362 220.431 26.6362C222.279 26.6362 223.718 25.9039 224.746 24.4394C225.787 22.9627 226.307 20.8269 226.307 18.0321Z" fill="#17252A"/>
<path d="M241.091 28.4852C239.401 28.4852 237.871 28.0702 236.5 27.2403C235.141 26.4104 234.082 25.2571 233.322 23.7804C232.563 22.2914 232.184 20.6255 232.184 18.7826V17.9955C232.184 16.0916 232.551 14.3768 233.286 12.8513C234.033 11.3257 235.067 10.1297 236.389 9.26317C237.712 8.38445 239.144 7.94509 240.687 7.94509C243.099 7.94509 245.008 8.76889 246.416 10.4165C247.837 12.0519 248.547 14.2914 248.547 17.135V18.3616H234.369V18.7826C234.369 21.0283 235.012 22.9016 236.298 24.4028C237.595 25.8917 239.224 26.6362 241.183 26.6362C242.358 26.6362 243.392 26.4226 244.286 25.9955C245.192 25.5683 246.012 24.8849 246.747 23.9451L248.124 24.9886C246.508 27.3196 244.164 28.4852 241.091 28.4852ZM240.687 9.81237C239.034 9.81237 237.638 10.4165 236.5 11.6247C235.373 12.833 234.688 14.4562 234.443 16.4943H246.361V16.2563C246.3 14.3524 245.755 12.8025 244.727 11.6064C243.698 10.4104 242.352 9.81237 240.687 9.81237Z" fill="#17252A"/>
<path d="M265.369 28.119C265.148 27.4966 265.008 26.5752 264.946 25.3547C264.175 26.3555 263.189 27.1305 261.99 27.6797C260.802 28.2167 259.541 28.4852 258.207 28.4852C256.297 28.4852 254.748 27.9543 253.56 26.8925C252.385 25.8307 251.797 24.4882 251.797 22.865C251.797 20.9367 252.599 19.4112 254.203 18.2884C255.819 17.1656 258.066 16.6041 260.943 16.6041H264.928V14.3524C264.928 12.9367 264.487 11.8261 263.606 11.0206C262.736 10.2029 261.463 9.79407 259.786 9.79407C258.255 9.79407 256.988 10.1846 255.984 10.9657C254.98 11.7468 254.479 12.6865 254.479 13.7849L252.275 13.7666C252.275 12.1922 253.009 10.8314 254.479 9.68423C255.948 8.52481 257.754 7.94509 259.896 7.94509C262.112 7.94509 263.857 8.5004 265.13 9.611C266.415 10.7094 267.077 12.2472 267.113 14.2243V23.5973C267.113 25.5134 267.315 26.9474 267.719 27.8994V28.119H265.369ZM258.464 26.5447C259.933 26.5447 261.243 26.1907 262.394 25.4829C263.557 24.775 264.402 23.8292 264.928 22.6453V18.2884H260.998C258.806 18.3128 257.092 18.7155 255.856 19.4966C254.619 20.2655 254.001 21.3273 254.001 22.682C254.001 23.7926 254.411 24.714 255.231 25.4463C256.064 26.1785 257.141 26.5447 258.464 26.5447Z" fill="#17252A"/>
<path d="M277.71 18.1419L275.194 20.5584V28.119H272.99V0L275.194 0V17.9955L277.269 15.762L284.872 8.31123H287.645L279.216 16.6591L288.38 28.119H285.753L277.71 18.1419Z" fill="#17252A"/>
<path d="M298.756 28.4852C297.066 28.4852 295.536 28.0702 294.164 27.2403C292.805 26.4104 291.746 25.2571 290.987 23.7804C290.228 22.2914 289.849 20.6255 289.849 18.7826V17.9955C289.849 16.0916 290.216 14.3768 290.951 12.8513C291.697 11.3257 292.732 10.1297 294.054 9.26317C295.376 8.38445 296.809 7.94509 298.352 7.94509C300.763 7.94509 302.673 8.76889 304.081 10.4165C305.502 12.0519 306.212 14.2914 306.212 17.135V18.3616H292.034V18.7826C292.034 21.0283 292.677 22.9016 293.962 24.4028C295.26 25.8917 296.889 26.6362 298.847 26.6362C300.023 26.6362 301.057 26.4226 301.951 25.9955C302.857 25.5683 303.677 24.8849 304.412 23.9451L305.789 24.9886C304.173 27.3196 301.829 28.4852 298.756 28.4852ZM298.352 9.81237C296.699 9.81237 295.303 10.4165 294.164 11.6247C293.038 12.833 292.352 14.4562 292.108 16.4943H304.026V16.2563C303.965 14.3524 303.42 12.8025 302.392 11.6064C301.363 10.4104 300.017 9.81237 298.352 9.81237Z" fill="#17252A"/>
<path d="M319.673 10.1785C319.208 10.0931 318.712 10.0504 318.185 10.0504C316.814 10.0504 315.651 10.4348 314.696 11.2037C313.753 11.9604 313.08 13.0649 312.676 14.5172V28.119H310.491V8.31123H312.639L312.676 11.46C313.839 9.11672 315.706 7.94509 318.277 7.94509C318.889 7.94509 319.373 8.02442 319.728 8.18308L319.673 10.1785Z" fill="#17252A"/>
<path d="M340.003 28.4852C338.313 28.4852 336.783 28.0702 335.411 27.2403C334.052 26.4104 332.993 25.2571 332.234 23.7804C331.475 22.2914 331.096 20.6255 331.096 18.7826V17.9955C331.096 16.0916 331.463 14.3768 332.198 12.8513C332.944 11.3257 333.979 10.1297 335.301 9.26317C336.623 8.38445 338.056 7.94509 339.599 7.94509C342.01 7.94509 343.92 8.76889 345.328 10.4165C346.748 12.0519 347.459 14.2914 347.459 17.135V18.3616H333.281V18.7826C333.281 21.0283 333.924 22.9016 335.209 24.4028C336.507 25.8917 338.135 26.6362 340.094 26.6362C341.27 26.6362 342.304 26.4226 343.198 25.9955C344.104 25.5683 344.924 24.8849 345.659 23.9451L347.036 24.9886C345.42 27.3196 343.076 28.4852 340.003 28.4852ZM339.599 9.81237C337.946 9.81237 336.55 10.4165 335.411 11.6247C334.285 12.833 333.599 14.4562 333.355 16.4943H345.273V16.2563C345.212 14.3524 344.667 12.8025 343.639 11.6064C342.61 10.4104 341.264 9.81237 339.599 9.81237Z" fill="#17252A"/>
<path d="M357.669 25.0984L363.711 8.31123H365.97L358.551 28.119H356.769L349.313 8.31123H351.572L357.669 25.0984Z" fill="#17252A"/>
<path d="M377.026 28.4852C375.336 28.4852 373.806 28.0702 372.434 27.2403C371.075 26.4104 370.016 25.2571 369.257 23.7804C368.498 22.2914 368.119 20.6255 368.119 18.7826V17.9955C368.119 16.0916 368.486 14.3768 369.221 12.8513C369.967 11.3257 371.002 10.1297 372.324 9.26317C373.647 8.38445 375.079 7.94509 376.622 7.94509C379.033 7.94509 380.943 8.76889 382.351 10.4165C383.772 12.0519 384.482 14.2914 384.482 17.135V18.3616H370.304V18.7826C370.304 21.0283 370.947 22.9016 372.232 24.4028C373.53 25.8917 375.159 26.6362 377.117 26.6362C378.293 26.6362 379.327 26.4226 380.221 25.9955C381.127 25.5683 381.947 24.8849 382.682 23.9451L384.059 24.9886C382.443 27.3196 380.099 28.4852 377.026 28.4852ZM376.622 9.81237C374.969 9.81237 373.573 10.4165 372.434 11.6247C371.308 12.833 370.622 14.4562 370.378 16.4943H382.296V16.2563C382.235 14.3524 381.69 12.8025 380.662 11.6064C379.633 10.4104 378.287 9.81237 376.622 9.81237Z" fill="#17252A"/>
<path d="M397.943 10.1785C397.478 10.0931 396.982 10.0504 396.455 10.0504C395.084 10.0504 393.921 10.4348 392.966 11.2037C392.023 11.9604 391.35 13.0649 390.946 14.5172V28.119H388.761V8.31123H390.909L390.946 11.46C392.109 9.11672 393.976 7.94509 396.547 7.94509C397.159 7.94509 397.643 8.02442 397.998 8.18308L397.943 10.1785Z" fill="#17252A"/>
<path d="M10.8388 67.3851C12.323 67.3851 13.6197 66.941 14.7291 66.0526C15.8384 65.1642 16.4531 64.0537 16.573 62.7212H20.5083C20.4333 64.0982 19.9536 65.4085 19.0691 66.6522C18.1846 67.896 17.0003 68.888 15.5161 69.6283C14.047 70.3686 12.4879 70.7388 10.8388 70.7388C7.5257 70.7388 4.88721 69.6505 2.92333 67.474C0.974443 65.2827 0 62.2918 0 58.5014L0 57.8129C0 55.4735 0.434751 53.3933 1.30425 51.5721C2.17376 49.7509 3.41805 48.337 5.03712 47.3301C6.67119 46.3233 8.59759 45.8199 10.8163 45.8199C13.5448 45.8199 15.8085 46.6268 17.6074 48.2407C19.4214 49.8546 20.3883 51.9497 20.5083 54.5259H16.573C16.4531 52.9713 15.8534 51.698 14.7741 50.7059C13.7097 49.6991 12.3904 49.1957 10.8163 49.1957C8.70253 49.1957 7.06096 49.9508 5.89163 51.4611C4.73729 52.9565 4.16012 55.1256 4.16012 57.9684V58.7457C4.16012 61.5145 4.73729 63.6466 5.89163 65.142C7.04597 66.6374 8.69503 67.3851 10.8388 67.3851Z" fill="#17252A"/>
<path d="M24.0837 58.0572C24.0837 55.703 24.5485 53.5858 25.4779 51.7054C26.4224 49.825 27.7267 48.374 29.3907 47.3523C31.0697 46.3307 32.9811 45.8199 35.1249 45.8199C38.438 45.8199 41.114 46.9526 43.1528 49.2179C45.2067 51.4833 46.2336 54.4963 46.2336 58.2571V58.5458C46.2336 60.8852 45.7763 62.9877 44.8619 64.8533C43.9624 66.7041 42.6656 68.1477 40.9716 69.1841C39.2925 70.2205 37.3586 70.7388 35.1699 70.7388C31.8718 70.7388 29.1958 69.6061 27.142 67.3407C25.1032 65.0754 24.0837 62.0771 24.0837 58.346V58.0572ZM28.2663 58.5458C28.2663 61.211 28.8885 63.3505 30.1328 64.9643C31.3921 66.5782 33.0711 67.3851 35.1699 67.3851C37.2837 67.3851 38.9627 66.5708 40.207 64.9421C41.4513 63.2986 42.0735 61.0037 42.0735 58.0572C42.0735 55.4217 41.4363 53.2896 40.162 51.6609C38.9028 50.0175 37.2237 49.1957 35.1249 49.1957C33.0711 49.1957 31.4145 50.0027 30.1553 51.6165C28.896 53.2304 28.2663 55.5402 28.2663 58.5458Z" fill="#17252A"/>
<path d="M55.3634 46.2641L55.4758 48.9292C57.2598 46.8563 59.6659 45.8199 62.6942 45.8199C66.0972 45.8199 68.4134 47.108 69.6427 49.6843C70.4522 48.5294 71.5016 47.5966 72.7909 46.8859C74.0952 46.1752 75.6318 45.8199 77.4008 45.8199C82.7377 45.8199 85.4512 48.6109 85.5411 54.1928V70.2946H81.381V54.4371C81.381 52.7196 80.9837 51.4389 80.1892 50.5949C79.3946 49.7361 78.0604 49.3068 76.1865 49.3068C74.6423 49.3068 73.3606 49.7658 72.3412 50.6837C71.3217 51.5869 70.7296 52.8084 70.5647 54.3483V70.2946H66.3821V54.5482C66.3821 51.0539 64.6506 49.3068 61.1875 49.3068C58.4591 49.3068 56.5927 50.4542 55.5882 52.7492V70.2946H51.4281V46.2641H55.3634Z" fill="#17252A"/>
<path d="M96.3574 70.2946H92.1973V46.2641H96.3574V70.2946ZM91.86 39.89C91.86 39.2237 92.0624 38.6611 92.4671 38.2021C92.8869 37.7431 93.5016 37.5136 94.3111 37.5136C95.1206 37.5136 95.7353 37.7431 96.155 38.2021C96.5748 38.6611 96.7847 39.2237 96.7847 39.89C96.7847 40.5563 96.5748 41.1115 96.155 41.5557C95.7353 41.9999 95.1206 42.222 94.3111 42.222C93.5016 42.222 92.8869 41.9999 92.4671 41.5557C92.0624 41.1115 91.86 40.5563 91.86 39.89Z" fill="#17252A"/>
<path d="M106.971 46.2641L107.106 49.2846C108.965 46.9748 111.394 45.8199 114.392 45.8199C119.534 45.8199 122.128 48.6849 122.173 54.4149V70.2946H118.013V54.3927C117.998 52.6604 117.593 51.3796 116.798 50.5505C116.019 49.7213 114.797 49.3068 113.133 49.3068C111.784 49.3068 110.599 49.6621 109.58 50.3728C108.56 51.0835 107.766 52.0163 107.196 53.1712V70.2946H103.036V46.2641H106.971Z" fill="#17252A"/>
<path d="M127.457 58.0794C127.457 54.3335 128.334 51.3574 130.088 49.1513C131.842 46.9304 134.166 45.8199 137.059 45.8199C140.027 45.8199 142.344 46.8563 144.008 48.9292L144.21 46.2641H148.01V69.7171C148.01 72.8264 147.073 75.2769 145.2 77.0684C143.341 78.86 140.837 79.7557 137.689 79.7557C135.935 79.7557 134.218 79.3856 132.539 78.6453C130.86 77.905 129.578 76.8907 128.694 75.6026L130.853 73.1374C132.637 75.3139 134.818 76.4021 137.396 76.4021C139.42 76.4021 140.994 75.8395 142.119 74.7142C143.258 73.589 143.828 72.0047 143.828 69.9614V67.896C142.164 69.7912 139.893 70.7388 137.014 70.7388C134.166 70.7388 131.857 69.6061 130.088 67.3407C128.334 65.0754 127.457 61.9883 127.457 58.0794ZM131.64 58.5458C131.64 61.2554 132.202 63.3875 133.326 64.9421C134.451 66.482 136.025 67.2519 138.049 67.2519C140.672 67.2519 142.598 66.0748 143.828 63.7206V52.7492C142.554 50.4542 140.642 49.3068 138.094 49.3068C136.07 49.3068 134.488 50.0841 133.349 51.6387C132.209 53.1934 131.64 55.4958 131.64 58.5458Z" fill="#17252A"/>
<path d="M171.375 40.4452V46.2641H175.917V49.44H171.375V64.3425C171.375 65.3049 171.577 66.0304 171.982 66.519C172.386 66.9928 173.076 67.2297 174.051 67.2297C174.53 67.2297 175.19 67.1408 176.029 66.9632V70.2946C174.935 70.5907 173.871 70.7388 172.836 70.7388C170.977 70.7388 169.576 70.1835 168.631 69.0731C167.687 67.9626 167.214 66.3857 167.214 64.3425V49.44H162.784V46.2641H167.214V40.4452H171.375Z" fill="#17252A"/>
<path d="M179.245 58.0572C179.245 55.703 179.71 53.5858 180.639 51.7054C181.584 49.825 182.888 48.374 184.552 47.3523C186.231 46.3307 188.142 45.8199 190.286 45.8199C193.599 45.8199 196.275 46.9526 198.314 49.2179C200.368 51.4833 201.395 54.4963 201.395 58.2571V58.5458C201.395 60.8852 200.938 62.9877 200.023 64.8533C199.124 66.7041 197.827 68.1477 196.133 69.1841C194.454 70.2205 192.52 70.7388 190.331 70.7388C187.033 70.7388 184.357 69.6061 182.303 67.3407C180.264 65.0754 179.245 62.0771 179.245 58.346V58.0572ZM183.428 58.5458C183.428 61.211 184.05 63.3505 185.294 64.9643C186.553 66.5782 188.232 67.3851 190.331 67.3851C192.445 67.3851 194.124 66.5708 195.368 64.9421C196.613 63.2986 197.235 61.0037 197.235 58.0572C197.235 55.4217 196.598 53.2896 195.323 51.6609C194.064 50.0175 192.385 49.1957 190.286 49.1957C188.232 49.1957 186.576 50.0027 185.317 51.6165C184.057 53.2304 183.428 55.5402 183.428 58.5458Z" fill="#17252A"/>
<path d="M225.996 64.2758L231.663 46.2641H236.115L226.333 74.0035C224.819 78.0012 222.413 80 219.115 80L218.328 79.9334L216.776 79.6447V76.3133L217.9 76.4021C219.31 76.4021 220.404 76.1208 221.184 75.5582C221.978 74.9955 222.63 73.9665 223.14 72.4711L224.062 70.0281L215.382 46.2641H219.924L225.996 64.2758Z" fill="#17252A"/>
<path d="M238.386 58.0572C238.386 55.703 238.851 53.5858 239.78 51.7054C240.725 49.825 242.029 48.374 243.693 47.3523C245.372 46.3307 247.284 45.8199 249.427 45.8199C252.741 45.8199 255.417 46.9526 257.455 49.2179C259.509 51.4833 260.536 54.4963 260.536 58.2571V58.5458C260.536 60.8852 260.079 62.9877 259.164 64.8533C258.265 66.7041 256.968 68.1477 255.274 69.1841C253.595 70.2205 251.661 70.7388 249.472 70.7388C246.174 70.7388 243.498 69.6061 241.445 67.3407C239.406 65.0754 238.386 62.0771 238.386 58.346V58.0572ZM242.569 58.5458C242.569 61.211 243.191 63.3505 244.435 64.9643C245.695 66.5782 247.374 67.3851 249.472 67.3851C251.586 67.3851 253.265 66.5708 254.51 64.9421C255.754 63.2986 256.376 61.0037 256.376 58.0572C256.376 55.4217 255.739 53.2896 254.465 51.6609C253.205 50.0175 251.526 49.1957 249.427 49.1957C247.374 49.1957 245.717 50.0027 244.458 51.6165C243.199 53.2304 242.569 55.5402 242.569 58.5458Z" fill="#17252A"/>
<path d="M280.775 67.9182C279.155 69.7986 276.779 70.7388 273.646 70.7388C271.053 70.7388 269.074 69.9984 267.71 68.5178C266.36 67.0224 265.678 64.8163 265.663 61.8994V46.2641H269.823V61.7884C269.823 65.4307 271.322 67.2519 274.321 67.2519C277.499 67.2519 279.613 66.0822 280.662 63.7428V46.2641H284.822V70.2946H280.864L280.775 67.9182Z" fill="#17252A"/>
<path d="M316.754 63.9205C316.754 62.81 316.327 61.9513 315.472 61.3442C314.633 60.7224 313.156 60.1893 311.042 59.7451C308.943 59.301 307.272 58.7679 306.028 58.1461C304.798 57.5242 303.884 56.7839 303.284 55.9251C302.699 55.0664 302.407 54.0447 302.407 52.8603C302.407 50.891 303.247 49.2253 304.926 47.8632C306.62 46.501 308.779 45.8199 311.402 45.8199C314.16 45.8199 316.394 46.5232 318.103 47.9298C319.827 49.3364 320.689 51.1353 320.689 53.3266H316.507C316.507 52.2014 316.019 51.2316 315.045 50.4172C314.085 49.6029 312.871 49.1957 311.402 49.1957C309.888 49.1957 308.704 49.5215 307.849 50.1729C306.995 50.8244 306.567 51.6758 306.567 52.727C306.567 53.719 306.965 54.4667 307.759 54.9701C308.554 55.4735 309.985 55.9548 312.054 56.4137C314.138 56.8727 315.824 57.4206 317.114 58.0572C318.403 58.6939 319.355 59.4638 319.97 60.367C320.599 61.2554 320.914 62.3436 320.914 63.6318C320.914 65.7787 320.045 67.5036 318.306 68.8065C316.567 70.0947 314.31 70.7388 311.537 70.7388C309.588 70.7388 307.864 70.3982 306.365 69.7171C304.866 69.036 303.689 68.0884 302.834 66.8743C301.995 65.6454 301.575 64.3203 301.575 62.8989H305.735C305.81 64.2758 306.365 65.3715 307.399 66.1858C308.449 66.9854 309.828 67.3851 311.537 67.3851C313.111 67.3851 314.37 67.0742 315.315 66.4524C316.274 65.8157 316.754 64.9717 316.754 63.9205Z" fill="#17252A"/>
<path d="M325.232 58.0572C325.232 55.703 325.696 53.5858 326.626 51.7054C327.57 49.825 328.875 48.374 330.539 47.3523C332.218 46.3307 334.129 45.8199 336.273 45.8199C339.586 45.8199 342.262 46.9526 344.301 49.2179C346.355 51.4833 347.381 54.4963 347.381 58.2571V58.5458C347.381 60.8852 346.924 62.9877 346.01 64.8533C345.11 66.7041 343.813 68.1477 342.119 69.1841C340.44 70.2205 338.507 70.7388 336.318 70.7388C333.02 70.7388 330.344 69.6061 328.29 67.3407C326.251 65.0754 325.232 62.0771 325.232 58.346V58.0572ZM329.414 58.5458C329.414 61.211 330.036 63.3505 331.281 64.9643C332.54 66.5782 334.219 67.3851 336.318 67.3851C338.432 67.3851 340.111 66.5708 341.355 64.9421C342.599 63.2986 343.221 61.0037 343.221 58.0572C343.221 55.4217 342.584 53.2896 341.31 51.6609C340.051 50.0175 338.372 49.1957 336.273 49.1957C334.219 49.1957 332.562 50.0027 331.303 51.6165C330.044 53.2304 329.414 55.5402 329.414 58.5458Z" fill="#17252A"/>
<path d="M351.497 58.0572C351.497 55.703 351.961 53.5858 352.891 51.7054C353.835 49.825 355.14 48.374 356.804 47.3523C358.483 46.3307 360.394 45.8199 362.538 45.8199C365.851 45.8199 368.527 46.9526 370.566 49.2179C372.62 51.4833 373.646 54.4963 373.646 58.2571V58.5458C373.646 60.8852 373.189 62.9877 372.275 64.8533C371.375 66.7041 370.078 68.1477 368.384 69.1841C366.705 70.2205 364.772 70.7388 362.583 70.7388C359.285 70.7388 356.609 69.6061 354.555 67.3407C352.516 65.0754 351.497 62.0771 351.497 58.346V58.0572ZM355.679 58.5458C355.679 61.211 356.301 63.3505 357.546 64.9643C358.805 66.5782 360.484 67.3851 362.583 67.3851C364.697 67.3851 366.376 66.5708 367.62 64.9421C368.864 63.2986 369.486 61.0037 369.486 58.0572C369.486 55.4217 368.849 53.2896 367.575 51.6609C366.316 50.0175 364.637 49.1957 362.538 49.1957C360.484 49.1957 358.827 50.0027 357.568 51.6165C356.309 53.2304 355.679 55.5402 355.679 58.5458Z" fill="#17252A"/>
<path d="M382.799 46.2641L382.934 49.2846C384.793 46.9748 387.221 45.8199 390.219 45.8199C395.362 45.8199 397.955 48.6849 398 54.4149V70.2946H393.84V54.3927C393.825 52.6604 393.42 51.3796 392.626 50.5505C391.846 49.7213 390.624 49.3068 388.96 49.3068C387.611 49.3068 386.427 49.6621 385.407 50.3728C384.388 51.0835 383.593 52.0163 383.024 53.1712V70.2946H378.863V46.2641H382.799Z" fill="#17252A"/>
</svg>
